<svg viewBox="0 0 50 50" fill="none" xmlns="http://www.w3.org/2000/svg">
<path d="M42.8752 8.62497C42.844 8.63278 42.8127 8.6445 42.7815 8.65622C42.5197 8.72263 42.2932 8.89059 42.1565 9.12497L21.719 40.8125L7.65646 28.125C7.41037 27.8125 7.00021 27.6758 6.61349 27.7773C6.22678 27.8789 5.94162 28.2031 5.88303 28.5976C5.82443 28.9922 6.00412 29.3828 6.34396 29.5937L21.2502 43.0937C21.469 43.2851 21.7619 43.3711 22.051 43.3281C22.3401 43.2851 22.594 43.1211 22.7502 42.875L43.844 10.1875C44.0744 9.85934 44.0862 9.42575 43.8752 9.08591C43.6643 8.74606 43.2697 8.56638 42.8752 8.62497Z" fill="#4CFF5E"/>
</svg>
