<svg width="234" height="37" viewBox="0 0 234 37" fill="none" xmlns="http://www.w3.org/2000/svg">
<path fill-rule="evenodd" clip-rule="evenodd" d="M15.5285 1.11102H28.0037V35.4597H15.5285V24.2248H10.4716H10.4477H8.49176C4.07891 24.2248 0 21.9588 0 17.3312V15.6854V14.6597V13.5386V13.1331V1.11102H12.4752V11.3679C12.4991 12.7514 13.2863 13.0615 14.7175 13.1331H15.5285V1.11102ZM89.5451 35.4597H76.2111V24.3679H86.4919C87.8992 24.2964 88.6864 23.9863 88.7102 22.6028V21.267H76.235V14.1826H86.5634C87.9469 14.111 88.6864 13.801 88.7102 12.4175V11.0817H78.1432H76.2111V1.13488H89.5451H93.0515C97.4644 1.13488 101.543 3.40093 101.543 8.02846V12.7753C101.543 14.9936 100.47 16.6156 97.9414 17.5459C100.47 18.4762 101.591 20.0982 101.543 22.3166V28.6138C101.543 33.2413 97.4644 35.5074 93.0515 35.5074H89.5451V35.4597ZM30.5799 1.11102H37.6166C41.123 1.11102 43.6276 2.4468 45.2496 5.61929L46.8478 8.74406L52.0955 18.9533L57.3432 8.74406L58.9414 5.61929C60.5872 2.42295 63.068 1.11102 66.5744 1.11102H73.6111V10.867V35.4597H61.1359V25.3698L55.9597 35.4597H54.8386H52.0955H49.3524H48.2313L43.0551 25.3698V35.4597H30.5799V10.867V1.11102Z" fill="#BFBFBF"/>
<path d="M123.13 9.48344H122.009V5.8816C121.556 6.02472 121.127 6.14399 120.769 6.21555C120.411 6.28711 120.029 6.33482 119.624 6.33482C119.266 6.33482 118.932 6.28711 118.622 6.1917C118.312 6.09628 118.05 5.95316 117.811 5.76234C117.573 5.57151 117.406 5.30913 117.286 4.99903C117.167 4.68894 117.096 4.30729 117.096 3.90179V0.967836H118.217V3.32931C118.217 3.68711 118.24 3.97335 118.264 4.18802C118.288 4.4027 118.36 4.59353 118.503 4.78436C118.622 4.95133 118.765 5.07059 119.004 5.16601C119.218 5.26142 119.505 5.30913 119.863 5.30913C120.196 5.30913 120.554 5.26142 120.96 5.18986C121.365 5.1183 121.723 5.02289 122.009 4.90362V0.967836H123.13V9.48344ZM127.543 9.62656C126.518 9.62656 125.73 9.34033 125.182 8.76785C124.609 8.19537 124.347 7.38436 124.347 6.33482C124.347 5.28527 124.609 4.47426 125.158 3.85408C125.707 3.23389 126.422 2.9238 127.305 2.9238C127.71 2.9238 128.044 2.97151 128.354 3.09077C128.664 3.21004 128.927 3.37701 129.165 3.61555C129.404 3.85408 129.571 4.16417 129.69 4.52197C129.809 4.87977 129.881 5.30913 129.881 5.81004V6.38252H125.468C125.468 7.12197 125.659 7.69445 126.017 8.0761C126.398 8.45776 126.899 8.67243 127.567 8.67243C127.806 8.67243 128.044 8.64858 128.259 8.60087C128.474 8.55317 128.688 8.48161 128.879 8.3862C129.07 8.29078 129.237 8.21922 129.38 8.12381C129.523 8.05225 129.618 7.95684 129.714 7.88528H129.785V9.05409C129.666 9.10179 129.499 9.17335 129.308 9.24491C129.118 9.31647 128.951 9.38803 128.807 9.41188C128.593 9.45959 128.402 9.5073 128.235 9.555C128.068 9.57886 127.853 9.60271 127.591 9.60271L127.543 9.62656ZM128.807 5.57151C128.807 5.28527 128.76 5.02289 128.712 4.83206C128.641 4.61738 128.569 4.45041 128.45 4.30729C128.33 4.14032 128.163 4.02105 127.973 3.94949C127.782 3.85408 127.543 3.83023 127.233 3.83023C126.947 3.83023 126.708 3.87793 126.494 3.94949C126.303 4.0449 126.112 4.16417 125.945 4.33114C125.778 4.49812 125.659 4.68894 125.587 4.87977C125.492 5.09445 125.444 5.30913 125.42 5.59537H128.807V5.57151ZM135.892 9.48344H134.819V3.9972H132.624C132.6 4.30729 132.6 4.61738 132.6 4.90362C132.6 5.18986 132.576 5.45225 132.576 5.69078C132.552 6.28711 132.505 6.78803 132.457 7.19353C132.409 7.59904 132.338 7.93298 132.242 8.17152C132.147 8.4339 132.075 8.62473 131.956 8.76785C131.861 8.91097 131.741 9.03023 131.622 9.1495C131.503 9.26877 131.36 9.34033 131.193 9.41188C131.05 9.45959 130.883 9.5073 130.692 9.5073C130.62 9.5073 130.549 9.5073 130.453 9.5073C130.358 9.5073 130.286 9.5073 130.263 9.5073V8.57702H130.31C130.334 8.57702 130.358 8.57702 130.406 8.57702C130.43 8.57702 130.477 8.57702 130.501 8.57702C130.596 8.57702 130.692 8.55317 130.763 8.52931C130.859 8.50546 130.93 8.45776 131.002 8.3862C131.193 8.19537 131.336 7.86142 131.407 7.40821C131.503 6.93115 131.551 6.28711 131.598 5.45225C131.622 5.14215 131.622 4.7605 131.646 4.355C131.67 3.92564 131.67 3.52013 131.694 3.13848H135.892V9.53115V9.48344ZM142.07 9.48344H140.996V6.955H139.923L138.039 9.48344H136.774L138.826 6.85959C138.301 6.69261 137.919 6.47794 137.657 6.16784C137.419 5.85775 137.299 5.45225 137.299 4.92747C137.299 4.61738 137.371 4.33114 137.514 4.09261C137.657 3.85408 137.848 3.66325 138.086 3.49628C138.277 3.37701 138.516 3.2816 138.802 3.21004C139.088 3.13848 139.422 3.11463 139.78 3.11463H142.07V9.5073V9.48344ZM140.996 6.09628V3.94949H139.828C139.589 3.94949 139.374 3.97335 139.231 3.9972C139.088 4.02105 138.945 4.06876 138.826 4.16417C138.683 4.25958 138.587 4.355 138.516 4.49812C138.444 4.64124 138.42 4.78436 138.42 4.95133C138.42 5.16601 138.444 5.33298 138.492 5.4761C138.54 5.59537 138.635 5.73848 138.754 5.8339C138.897 5.95316 139.041 6.02472 139.231 6.04858C139.422 6.09628 139.637 6.09628 139.875 6.09628H140.996ZM148.152 4.0449C148.391 4.30729 148.582 4.61738 148.725 4.99903C148.868 5.38069 148.94 5.8339 148.94 6.33482C148.94 6.83573 148.868 7.28895 148.701 7.69445C148.534 8.09996 148.343 8.45776 148.057 8.74399C147.771 9.03023 147.485 9.26877 147.151 9.41188C146.817 9.555 146.459 9.62656 146.053 9.62656C145.648 9.62656 145.29 9.555 144.956 9.41188C144.622 9.26877 144.336 9.05409 144.097 8.76785C143.811 8.41005 143.573 7.95684 143.43 7.40821C143.286 6.85959 143.215 6.1917 143.215 5.38069C143.215 5.09445 143.215 4.80821 143.263 4.49812C143.286 4.21188 143.334 3.85408 143.43 3.44857C143.501 3.09077 143.596 2.73298 143.74 2.42288C143.859 2.11279 144.05 1.85041 144.241 1.63573C144.503 1.34949 144.861 1.13481 145.29 0.967836C145.719 0.800863 146.316 0.681597 147.031 0.610038C147.294 0.586184 147.556 0.562331 147.842 0.538478C148.129 0.514625 148.367 0.490771 148.51 0.490771V1.46875C148.319 1.46875 148.105 1.49261 147.866 1.51646C147.652 1.54031 147.389 1.56417 147.103 1.58802C146.721 1.61187 146.316 1.68343 145.886 1.8027C145.457 1.89811 145.147 2.06509 144.932 2.27976C144.765 2.44674 144.646 2.68527 144.551 2.99536C144.455 3.30545 144.384 3.6394 144.36 4.02105C144.646 3.83023 144.956 3.6394 145.266 3.52013C145.576 3.37701 145.934 3.30545 146.316 3.30545C146.65 3.30545 146.984 3.35316 147.294 3.47243C147.604 3.59169 147.89 3.78252 148.129 4.02105L148.152 4.0449ZM147.842 6.40638C147.842 5.73848 147.699 5.21371 147.389 4.85592C147.079 4.49812 146.65 4.30729 146.077 4.30729C145.767 4.30729 145.457 4.355 145.171 4.45041C144.885 4.54582 144.598 4.68894 144.36 4.85592C144.36 4.95133 144.336 5.07059 144.336 5.18986C144.336 5.33298 144.312 5.45225 144.312 5.54766C144.312 6.21555 144.36 6.74032 144.479 7.16968C144.598 7.57518 144.741 7.90913 144.932 8.14766C145.099 8.36234 145.29 8.50546 145.481 8.60087C145.672 8.67243 145.886 8.72014 146.101 8.72014C146.65 8.72014 147.079 8.50546 147.389 8.09996C147.699 7.69445 147.842 7.12197 147.842 6.40638ZM155.094 9.48344H154.02V4.7128L151.015 9.48344H150.037V3.09077H151.11V7.76601L154.092 3.09077H155.094V9.48344ZM161.677 9.48344H160.604V6.62106H157.718V9.48344H156.644V3.09077H157.718V5.66693H160.604V3.09077H161.677V9.48344ZM165.756 9.62656C165.327 9.62656 164.921 9.555 164.54 9.41188C164.182 9.26877 163.872 9.07794 163.586 8.7917C163.323 8.50546 163.108 8.17152 162.965 7.74216C162.822 7.3128 162.751 6.83573 162.751 6.26326C162.751 5.71463 162.822 5.21371 162.965 4.80821C163.108 4.4027 163.323 4.06876 163.562 3.78252C163.824 3.49628 164.134 3.2816 164.492 3.13848C164.874 2.99536 165.279 2.9238 165.708 2.9238C166.066 2.9238 166.4 2.97151 166.734 3.06692C167.068 3.16233 167.354 3.2816 167.617 3.40087V4.61738H167.545C167.474 4.54582 167.378 4.47426 167.259 4.4027C167.14 4.30729 166.997 4.23573 166.83 4.14032C166.686 4.06876 166.496 3.9972 166.305 3.94949C166.114 3.90179 165.899 3.85408 165.732 3.85408C165.184 3.85408 164.73 4.06876 164.397 4.49812C164.063 4.92747 163.896 5.52381 163.896 6.28711C163.896 7.05041 164.063 7.62289 164.397 8.05225C164.73 8.48161 165.184 8.69629 165.756 8.69629C166.114 8.69629 166.448 8.62473 166.758 8.48161C167.068 8.33849 167.354 8.14766 167.593 7.93298H167.664V9.1495C167.545 9.19721 167.426 9.26877 167.259 9.34033C167.092 9.41188 166.949 9.45959 166.83 9.5073C166.639 9.555 166.496 9.60271 166.329 9.62656C166.186 9.65042 165.995 9.67427 165.78 9.67427L165.756 9.62656ZM173.747 9.48344H172.411L170.217 6.5495H169.692V9.48344H168.619V3.09077H169.692V5.85775C169.978 5.85775 170.217 5.78619 170.408 5.69078C170.598 5.57151 170.765 5.35683 170.908 5.04674C170.956 4.95133 171.004 4.83206 171.052 4.7128C171.099 4.59353 171.147 4.47426 171.171 4.37885C171.338 3.90179 171.576 3.56784 171.863 3.37701C172.173 3.18619 172.554 3.09077 173.031 3.09077H173.318V4.02105H173.079C172.769 4.02105 172.554 4.09261 172.411 4.21188C172.268 4.33114 172.125 4.56968 172.03 4.87977C171.934 5.21371 171.791 5.4761 171.648 5.64307C171.505 5.8339 171.338 5.97702 171.171 6.07243L173.771 9.45959L173.747 9.48344ZM179.472 9.48344H178.398V4.7128L175.393 9.48344H174.415V3.09077H175.488V7.76601L178.47 3.09077H179.472V9.48344ZM186.079 9.48344H185.006V4.7128L182 9.48344H181.022V3.09077H182.096V7.76601L185.077 3.09077H186.079V9.48344ZM185.602 0.132973C185.602 0.466918 185.554 0.753157 185.483 1.01554C185.411 1.27793 185.292 1.51646 185.149 1.68343C184.982 1.87426 184.791 2.04123 184.576 2.13665C184.362 2.23206 184.075 2.27976 183.742 2.27976C183.431 2.27976 183.145 2.23206 182.931 2.11279C182.692 2.01738 182.501 1.85041 182.334 1.65958C182.167 1.46875 182.072 1.23022 181.976 0.967836C181.905 0.70545 181.857 0.395358 181.857 0.0852661H182.787C182.787 0.610038 182.859 0.967836 183.026 1.20637C183.193 1.42105 183.431 1.54031 183.742 1.54031C184.052 1.54031 184.266 1.42105 184.433 1.20637C184.6 0.991689 184.696 0.610038 184.696 0.0852661H185.626L185.602 0.132973ZM123.25 22.4596H122.176V17.4504L120.65 20.7183H119.839L118.312 17.4504V22.4596H117.31V16.0669H118.598L120.292 19.6211L121.914 16.0669H123.226V22.4596H123.25ZM128.378 20.8853V19.1202C128.116 19.144 127.806 19.1679 127.4 19.2156C127.018 19.2633 126.685 19.311 126.446 19.3825C126.16 19.478 125.921 19.5972 125.73 19.788C125.54 19.9789 125.444 20.2174 125.444 20.5513C125.444 20.9091 125.54 21.1954 125.754 21.3862C125.969 21.577 126.255 21.6725 126.661 21.6725C126.995 21.6725 127.305 21.6009 127.591 21.4578C127.853 21.3147 128.116 21.1238 128.354 20.9091L128.378 20.8853ZM128.378 21.7679C128.283 21.8394 128.163 21.911 128.02 22.0303C127.877 22.1495 127.734 22.2449 127.591 22.3165C127.4 22.4119 127.209 22.4835 127.042 22.555C126.875 22.6027 126.613 22.6266 126.303 22.6266C126.041 22.6266 125.778 22.5789 125.563 22.4835C125.325 22.3881 125.11 22.2449 124.943 22.0541C124.776 21.8871 124.633 21.6725 124.538 21.4101C124.442 21.1477 124.395 20.8853 124.395 20.5991C124.395 20.1458 124.49 19.788 124.681 19.478C124.872 19.1679 125.158 18.9293 125.563 18.7385C125.921 18.5715 126.351 18.4523 126.828 18.4046C127.305 18.333 127.83 18.2853 128.402 18.2614V18.0468C128.402 17.7844 128.354 17.5935 128.283 17.4266C128.211 17.2835 128.092 17.1642 127.973 17.0688C127.83 16.9734 127.663 16.9257 127.472 16.9018C127.281 16.878 127.066 16.8541 126.852 16.8541C126.613 16.8541 126.303 16.9018 125.969 16.9734C125.635 17.0449 125.301 17.1642 124.967 17.3073H124.896V16.2101C125.086 16.1624 125.373 16.0908 125.754 16.0192C126.136 15.9477 126.494 15.9238 126.852 15.9238C127.281 15.9238 127.663 15.9477 127.949 16.0192C128.259 16.0908 128.521 16.2101 128.76 16.4009C128.998 16.5679 129.165 16.8064 129.285 17.0926C129.404 17.3789 129.452 17.7128 129.452 18.1183V22.4835H128.378V21.8156V21.7679ZM138.516 22.4358H130.954V16.0431H132.028V21.5055H134.198V16.0431H135.272V21.5055H137.442V16.0431H138.516V22.4358ZM145.123 22.4358H144.05V17.6651L141.044 22.4358H140.066V16.0431H141.14V20.7183L144.121 16.0431H145.123V22.4358ZM151.707 22.4358H150.633V19.5734H147.747V22.4358H146.674V16.0431H147.747V18.6192H150.633V16.0431H151.707V22.4358ZM158.505 19.2394C158.505 20.3128 158.242 21.1477 157.718 21.7202C157.193 22.3165 156.501 22.6027 155.642 22.6027C154.76 22.6027 154.068 22.2926 153.543 21.6963C153.042 21.1 152.78 20.2651 152.78 19.2394C152.78 18.166 153.042 17.355 153.567 16.7587C154.092 16.1624 154.784 15.8761 155.642 15.8761C156.501 15.8761 157.193 16.1624 157.718 16.7587C158.242 17.355 158.505 18.166 158.505 19.2394ZM157.408 19.2394C157.408 18.4046 157.264 17.8082 156.954 17.4027C156.644 16.9972 156.215 16.8064 155.666 16.8064C155.118 16.8064 154.664 16.9972 154.378 17.4027C154.068 17.8082 153.925 18.4284 153.925 19.2394C153.925 20.0504 154.068 20.6468 154.378 21.0523C154.688 21.4578 155.118 21.6725 155.666 21.6725C156.215 21.6725 156.644 21.4578 156.954 21.0523C157.264 20.6468 157.408 20.0266 157.408 19.2156V19.2394ZM162.154 22.5789C161.725 22.5789 161.319 22.5073 160.938 22.3642C160.58 22.2211 160.27 22.0303 159.984 21.744C159.721 21.4578 159.507 21.1238 159.363 20.7183C159.22 20.289 159.149 19.8119 159.149 19.2394C159.149 18.6908 159.22 18.1899 159.363 17.7844C159.507 17.3789 159.721 17.0449 159.96 16.7587C160.222 16.4724 160.532 16.2578 160.89 16.1146C161.272 15.9715 161.677 15.9 162.107 15.9C162.464 15.9 162.798 15.9477 163.132 16.0431C163.466 16.1385 163.752 16.2578 164.015 16.377V17.5935H163.943C163.872 17.522 163.776 17.4504 163.657 17.3789C163.538 17.2835 163.395 17.2119 163.228 17.1165C163.085 17.0449 162.894 16.9734 162.703 16.9257C162.512 16.878 162.297 16.8302 162.13 16.8302C161.582 16.8302 161.129 17.0449 160.795 17.4743C160.461 17.9036 160.294 18.5 160.294 19.2633C160.294 20.0266 160.461 20.5991 160.795 21.0284C161.129 21.4578 161.582 21.6725 162.154 21.6725C162.512 21.6725 162.846 21.6009 163.156 21.4578C163.466 21.3147 163.752 21.1238 163.991 20.9091H164.063V22.1257C163.943 22.1734 163.824 22.2449 163.657 22.3165C163.49 22.3881 163.347 22.4358 163.228 22.4835C163.037 22.5312 162.894 22.5789 162.727 22.6027C162.584 22.6266 162.393 22.6504 162.178 22.6504L162.154 22.5789ZM169.692 16.9972H167.521V22.4358H166.448V16.9972H164.277V16.0431H169.692V16.9972ZM175.846 19.0724C175.846 20.1458 175.584 20.9807 175.083 21.6009C174.582 22.2211 173.938 22.555 173.151 22.555C172.841 22.555 172.554 22.5073 172.316 22.4358C172.077 22.3642 171.815 22.2449 171.576 22.1018V24.7734H170.503V16.0431H171.576V16.711C171.839 16.4724 172.149 16.2816 172.459 16.1146C172.793 15.9477 173.151 15.8761 173.532 15.8761C174.272 15.8761 174.844 16.1624 175.25 16.7348C175.655 17.3073 175.87 18.0945 175.87 19.0724H175.846ZM174.749 19.1917C174.749 18.4523 174.63 17.9036 174.391 17.4981C174.153 17.0926 173.771 16.9018 173.27 16.9018C172.96 16.9018 172.674 16.9734 172.387 17.1165C172.101 17.2596 171.839 17.4266 171.576 17.6413V21.2669C171.863 21.4101 172.101 21.5055 172.292 21.5532C172.483 21.6009 172.721 21.6247 172.984 21.6247C173.532 21.6247 173.962 21.4101 174.272 21.0046C174.582 20.5991 174.725 20.0027 174.725 19.2156L174.749 19.1917ZM182.215 19.2394C182.215 20.3128 181.953 21.1477 181.428 21.7202C180.903 22.3165 180.211 22.6027 179.353 22.6027C178.47 22.6027 177.778 22.2926 177.253 21.6963C176.753 21.1 176.49 20.2651 176.49 19.2394C176.49 18.166 176.753 17.355 177.277 16.7587C177.802 16.1624 178.494 15.8761 179.353 15.8761C180.211 15.8761 180.903 16.1624 181.428 16.7587C181.953 17.355 182.215 18.166 182.215 19.2394ZM181.118 19.2394C181.118 18.4046 180.975 17.8082 180.664 17.4027C180.354 16.9972 179.925 16.8064 179.376 16.8064C178.828 16.8064 178.375 16.9972 178.088 17.4027C177.778 17.8082 177.635 18.4284 177.635 19.2394C177.635 20.0504 177.778 20.6468 178.088 21.0523C178.398 21.4578 178.828 21.6725 179.376 21.6725C179.925 21.6725 180.354 21.4578 180.664 21.0523C180.975 20.6468 181.118 20.0266 181.118 19.2156V19.2394ZM188.369 22.4358H187.296V17.6651L184.29 22.4358H183.312V16.0431H184.386V20.7183L187.367 16.0431H188.369V22.4358ZM194.595 16.9972H192.424V22.4358H191.351V16.9972H189.18V16.0431H194.595V16.9972ZM198.173 22.5789C197.147 22.5789 196.36 22.2926 195.811 21.7202C195.239 21.1477 194.976 20.3367 194.976 19.2871C194.976 18.2376 195.239 17.4266 195.787 16.8064C196.336 16.1862 197.052 15.8761 197.934 15.8761C198.34 15.8761 198.674 15.9238 198.984 16.0431C199.294 16.1624 199.556 16.3293 199.795 16.5679C200.033 16.8064 200.2 17.1165 200.32 17.4743C200.439 17.8321 200.51 18.2614 200.51 18.7624V19.3348H196.097C196.097 20.0743 196.288 20.6468 196.646 21.0284C197.028 21.4101 197.529 21.6247 198.197 21.6247C198.435 21.6247 198.674 21.6009 198.888 21.5532C199.103 21.5055 199.318 21.4339 199.509 21.3385C199.699 21.2431 199.866 21.1715 200.009 21.0761C200.153 21.0046 200.248 20.9091 200.343 20.8376H200.415V22.0064C200.296 22.0541 200.129 22.1257 199.938 22.1972C199.747 22.2688 199.58 22.3403 199.437 22.3642C199.222 22.4119 199.031 22.4596 198.864 22.5073C198.698 22.5312 198.483 22.555 198.22 22.555L198.173 22.5789ZM199.437 18.5238C199.437 18.2376 199.389 17.9752 199.342 17.7844C199.27 17.5697 199.198 17.4027 199.079 17.2596C198.96 17.0926 198.793 16.9734 198.602 16.9018C198.411 16.8064 198.173 16.7825 197.863 16.7825C197.576 16.7825 197.338 16.8302 197.123 16.9018C196.932 16.9972 196.742 17.1165 196.575 17.2835C196.408 17.4504 196.288 17.6413 196.217 17.8321C196.121 18.0468 196.074 18.2614 196.05 18.5477H199.437V18.5238ZM206.521 22.4358H205.448V16.9495H203.253C203.23 17.2596 203.23 17.5697 203.23 17.8559C203.23 18.1422 203.206 18.4046 203.206 18.6431C203.182 19.2394 203.134 19.7403 203.086 20.1458C203.039 20.5513 202.967 20.8853 202.872 21.1238C202.776 21.3862 202.705 21.577 202.586 21.7202C202.49 21.8633 202.371 21.9825 202.252 22.1018C202.132 22.2211 201.989 22.2926 201.822 22.3642C201.679 22.4119 201.512 22.4596 201.321 22.4596C201.25 22.4596 201.178 22.4596 201.083 22.4596C200.987 22.4596 200.916 22.4596 200.892 22.4596V21.5293H200.94C200.964 21.5293 200.987 21.5293 201.035 21.5293C201.059 21.5293 201.107 21.5293 201.131 21.5293C201.226 21.5293 201.321 21.5055 201.393 21.4816C201.488 21.4578 201.56 21.4101 201.631 21.3385C201.822 21.1477 201.965 20.8137 202.037 20.3605C202.132 19.8835 202.18 19.2394 202.228 18.4046C202.252 18.0945 202.252 17.7128 202.275 17.3073C202.299 16.878 202.299 16.4724 202.323 16.0908H206.521V22.4835V22.4358ZM212.914 20.4559C212.914 20.766 212.842 21.0523 212.723 21.2908C212.604 21.5532 212.437 21.744 212.222 21.911C211.984 22.1018 211.698 22.2449 211.411 22.3165C211.125 22.3881 210.767 22.4358 210.314 22.4358H208.072V16.0431H209.145V18.5238H210.338C210.815 18.5238 211.197 18.5477 211.459 18.5954C211.721 18.6431 211.984 18.7624 212.246 18.9532C212.461 19.1202 212.628 19.3348 212.747 19.5734C212.866 19.8358 212.914 20.122 212.914 20.4321V20.4559ZM211.817 20.4798C211.817 20.289 211.793 20.122 211.721 19.9789C211.65 19.8358 211.554 19.7165 211.387 19.6211C211.22 19.5257 211.053 19.478 210.839 19.4541C210.624 19.4302 210.338 19.4302 209.956 19.4302H209.145V21.6009H209.932C210.314 21.6009 210.6 21.577 210.815 21.5532C211.03 21.5293 211.197 21.4578 211.364 21.3624C211.531 21.2669 211.626 21.1477 211.698 21.0046C211.769 20.8614 211.793 20.6945 211.793 20.4798H211.817ZM218.997 22.4358H217.923V19.5734H215.037V22.4358H213.964V16.0431H215.037V18.6192H217.923V16.0431H218.997V22.4358ZM225.294 20.4559C225.294 20.766 225.222 21.0523 225.103 21.2908C224.984 21.5532 224.817 21.744 224.602 21.911C224.364 22.1018 224.077 22.2449 223.791 22.3165C223.505 22.3881 223.147 22.4358 222.694 22.4358H220.547V16.0431H221.62V18.5238H222.718C223.195 18.5238 223.576 18.5477 223.839 18.5954C224.101 18.6431 224.364 18.7624 224.626 18.9532C224.841 19.1202 225.008 19.3348 225.127 19.5734C225.246 19.8358 225.294 20.122 225.294 20.4321V20.4559ZM224.197 20.4798C224.197 20.289 224.173 20.122 224.101 19.9789C224.03 19.8358 223.934 19.7165 223.767 19.6211C223.6 19.5257 223.433 19.478 223.219 19.4541C223.004 19.4302 222.718 19.4302 222.336 19.4302H221.644V21.6009H222.336C222.718 21.6009 223.004 21.577 223.219 21.5532C223.433 21.5293 223.6 21.4578 223.767 21.3624C223.934 21.2669 224.03 21.1477 224.101 21.0046C224.173 20.8614 224.197 20.6945 224.197 20.4798ZM227.131 22.4358H226.057V16.0431H227.131V22.4358ZM233.738 22.4358H232.665V17.6651L229.659 22.4358H228.681V16.0431H229.754V20.7183L232.736 16.0431H233.738V22.4358ZM233.261 13.0853C233.261 13.4192 233.213 13.7055 233.142 13.9679C233.07 14.2302 232.951 14.4688 232.808 14.6357C232.641 14.8266 232.45 14.9935 232.235 15.089C232.02 15.1844 231.734 15.2321 231.4 15.2321C231.09 15.2321 230.804 15.1844 230.589 15.0651C230.351 14.9697 230.16 14.8027 229.993 14.6119C229.826 14.4211 229.731 14.1825 229.635 13.9201C229.564 13.6578 229.516 13.3477 229.516 13.0376H230.446C230.446 13.5623 230.518 13.9201 230.685 14.1587C230.852 14.3734 231.09 14.4926 231.4 14.4926C231.71 14.4926 231.925 14.3734 232.092 14.1587C232.259 13.944 232.354 13.5623 232.354 13.0376H233.285L233.261 13.0853ZM121.699 33.6468C121.699 34.0046 121.628 34.3147 121.461 34.5532C121.294 34.7917 121.103 35.0064 120.864 35.1495C120.626 35.2927 120.363 35.3881 120.077 35.4596C119.791 35.5312 119.481 35.555 119.195 35.555C118.765 35.555 118.384 35.5073 118.002 35.4358C117.62 35.3642 117.263 35.2211 116.881 35.0541V33.8615H116.952C117.215 34.1 117.525 34.2908 117.93 34.4339C118.312 34.5771 118.718 34.6486 119.099 34.6486C119.266 34.6486 119.457 34.6248 119.648 34.6009C119.839 34.5771 120.006 34.5055 120.125 34.4339C120.292 34.3147 120.435 34.2193 120.507 34.1C120.578 33.9807 120.626 33.8138 120.626 33.5991C120.626 33.3605 120.578 33.1936 120.507 33.0504C120.411 32.9073 120.292 32.8119 120.149 32.7404C120.006 32.6688 119.839 32.6211 119.648 32.6211C119.457 32.5972 119.266 32.5972 119.052 32.5972H118.288V31.667H118.861C119.004 31.667 119.195 31.667 119.409 31.6431C119.624 31.6431 119.791 31.5954 119.934 31.5477C120.101 31.4761 120.22 31.4046 120.34 31.2853C120.435 31.166 120.483 30.9752 120.483 30.7128C120.483 30.522 120.435 30.3789 120.363 30.2596C120.268 30.1404 120.173 30.0449 120.053 29.9972C119.934 29.9257 119.791 29.878 119.624 29.8541C119.481 29.8303 119.314 29.8064 119.195 29.8064C118.837 29.8064 118.479 29.8541 118.145 29.9495C117.811 30.0449 117.525 30.2119 117.286 30.4027H117.215V29.2339C117.501 29.1385 117.787 29.067 118.121 28.9954C118.455 28.9238 118.789 28.8761 119.123 28.8761C119.385 28.8761 119.672 28.9 119.958 28.9477C120.244 28.9954 120.507 29.0908 120.745 29.2339C120.984 29.3532 121.174 29.544 121.341 29.7587C121.508 29.9972 121.58 30.2596 121.58 30.5936C121.58 30.9275 121.485 31.2376 121.294 31.5C121.103 31.7624 120.84 31.9293 120.507 32.0248V32.0725C120.864 32.1917 121.151 32.3826 121.389 32.6211C121.604 32.8835 121.723 33.2174 121.723 33.6229L121.699 33.6468ZM126.398 33.8376V32.0725C126.136 32.0963 125.826 32.1202 125.42 32.1679C125.039 32.2156 124.705 32.2633 124.466 32.3349C124.18 32.4303 123.941 32.5495 123.751 32.7404C123.56 32.9312 123.464 33.1697 123.464 33.5037C123.464 33.8615 123.56 34.1477 123.774 34.3385C123.989 34.5294 124.275 34.6248 124.681 34.6248C125.015 34.6248 125.325 34.5532 125.611 34.4101C125.874 34.267 126.136 34.0761 126.374 33.8615L126.398 33.8376ZM126.398 34.7202C126.303 34.7917 126.184 34.8633 126.041 34.9826C125.897 35.1018 125.754 35.1972 125.611 35.2688C125.42 35.3642 125.229 35.4358 125.063 35.5073C124.896 35.555 124.633 35.5789 124.323 35.5789C124.061 35.5789 123.798 35.5312 123.584 35.4358C123.345 35.3404 123.13 35.1972 122.963 35.0064C122.796 34.8394 122.653 34.6248 122.558 34.3624C122.463 34.1 122.415 33.8376 122.415 33.5514C122.415 33.0982 122.51 32.7404 122.701 32.4303C122.892 32.1202 123.178 31.8816 123.584 31.6908C123.941 31.5238 124.371 31.4046 124.848 31.3569C125.325 31.2853 125.85 31.2376 126.422 31.2137V30.9991C126.422 30.7367 126.374 30.5459 126.303 30.3789C126.231 30.2358 126.112 30.1165 125.993 30.0211C125.85 29.9257 125.683 29.878 125.492 29.8541C125.301 29.8303 125.086 29.8064 124.872 29.8064C124.633 29.8064 124.323 29.8541 123.989 29.9257C123.655 29.9972 123.321 30.1165 122.987 30.2596H122.916V29.1624C123.107 29.1147 123.393 29.0431 123.774 28.9715C124.156 28.9 124.514 28.8761 124.872 28.8761C125.301 28.8761 125.683 28.9 125.969 28.9715C126.279 29.0431 126.541 29.1624 126.78 29.3532C127.018 29.5202 127.185 29.7587 127.305 30.0449C127.424 30.3312 127.472 30.6651 127.472 31.0706V35.4358H126.398V34.7679V34.7202ZM133.984 33.456C133.984 33.766 133.936 34.0284 133.817 34.267C133.697 34.5055 133.53 34.6963 133.34 34.8633C133.077 35.078 132.815 35.1972 132.529 35.2688C132.242 35.3404 131.908 35.3642 131.503 35.3642H128.998V28.9715H131.336C131.813 28.9715 132.147 28.9954 132.362 29.0193C132.576 29.0431 132.791 29.1147 133.006 29.2339C133.22 29.3532 133.387 29.5202 133.507 29.711C133.626 29.9018 133.674 30.1404 133.674 30.4266C133.674 30.7367 133.578 30.9991 133.411 31.2376C133.244 31.4761 133.03 31.667 132.743 31.8101L132.767 31.8578C133.125 31.9532 133.411 32.1202 133.65 32.3826C133.888 32.6449 134.007 33.0027 134.007 33.4082L133.984 33.456ZM132.552 30.6413C132.552 30.4982 132.529 30.3789 132.481 30.2596C132.433 30.1404 132.362 30.0688 132.242 29.9972C132.099 29.9257 131.956 29.878 131.789 29.878C131.622 29.8541 131.384 29.8541 131.074 29.8541H130.048V31.5954H131.288C131.551 31.5954 131.741 31.5954 131.837 31.5477C131.956 31.5238 132.075 31.4761 132.195 31.3807C132.314 31.3092 132.409 31.1899 132.457 31.0706C132.505 30.9514 132.529 30.7844 132.529 30.5936L132.552 30.6413ZM132.886 33.456C132.886 33.2413 132.863 33.0743 132.791 32.9312C132.719 32.8119 132.6 32.6926 132.385 32.5734C132.242 32.5018 132.099 32.478 131.956 32.4541C131.813 32.4303 131.598 32.4303 131.312 32.4303H130.048V34.5055H130.978C131.36 34.5055 131.67 34.4816 131.885 34.4578C132.099 34.4339 132.29 34.3624 132.433 34.267C132.6 34.1716 132.719 34.0523 132.791 33.933C132.863 33.8138 132.91 33.6468 132.91 33.4321L132.886 33.456ZM140.376 32.1917C140.376 33.2651 140.114 34.1 139.589 34.6725C139.064 35.2688 138.373 35.555 137.514 35.555C136.631 35.555 135.94 35.2449 135.415 34.6486C134.914 34.0523 134.652 33.2174 134.652 32.1917C134.652 31.1183 134.914 30.3073 135.439 29.711C135.963 29.1147 136.655 28.8284 137.514 28.8284C138.373 28.8284 139.064 29.1147 139.589 29.711C140.114 30.3073 140.376 31.1183 140.376 32.1917ZM139.279 32.1917C139.279 31.3569 139.136 30.7605 138.826 30.355C138.516 29.9495 138.086 29.7587 137.538 29.7587C136.989 29.7587 136.536 29.9495 136.25 30.355C135.94 30.7605 135.796 31.3807 135.796 32.1917C135.796 33.0027 135.94 33.5991 136.25 34.0046C136.56 34.4101 136.989 34.6248 137.538 34.6248C138.086 34.6248 138.516 34.4101 138.826 34.0046C139.136 33.5991 139.279 32.9789 139.279 32.1679V32.1917ZM146.96 36.9147H145.958V35.3642H141.76V36.9147H140.758V34.4578H141.187C141.545 33.8615 141.855 33.0982 142.07 32.1202C142.308 31.166 142.404 30.1165 142.404 28.9715H146.316V34.4339H146.96V36.8908V36.9147ZM145.242 34.4578V29.9018H143.406C143.358 30.856 143.215 31.7147 143.024 32.5018C142.809 33.289 142.547 33.933 142.237 34.4578H145.266H145.242Z" fill="#BFBFBF"/>
</svg>
