<svg width="235" height="43" viewBox="0 0 235 43" fill="none" xmlns="http://www.w3.org/2000/svg">
<g clip-path="url(#clip0_58_4093)">
<path d="M60.6743 36.2209H62.9156C63.5519 36.1811 64.1864 36.3225 64.7433 36.6282C65.1881 36.9777 65.5473 37.4214 65.7941 37.9263C66.041 38.4312 66.1691 38.9844 66.1691 39.5448C66.1691 40.1052 66.041 40.6584 65.7941 41.1633C65.5473 41.6682 65.1881 42.1119 64.7433 42.4614C64.1864 42.7671 63.5519 42.9084 62.9156 42.8687H60.6743V36.2209ZM61.6082 42.0672H62.9423C63.2684 42.0985 63.5971 42.0459 63.8964 41.9147C64.1957 41.7834 64.4553 41.578 64.6499 41.3184C64.9901 40.7875 65.1706 40.1725 65.1706 39.5448C65.1706 38.917 64.9901 38.3021 64.6499 37.7712C64.4569 37.5092 64.1979 37.3012 63.8985 37.1676C63.5991 37.034 63.2696 36.9794 62.9423 37.0092H61.6082V42.0672Z" fill="#BFBFBF"/>
<path d="M72.6812 42.8686V36.2209H76.9102V37.0092H73.615V39.0849H76.7501V39.8732H73.615V42.0672H76.9903V42.8686H72.6812Z" fill="#BFBFBF"/>
<path d="M89.4509 36.2209V42.8686H88.3036L84.8883 37.2194V42.8686H84.0479V36.2209H85.3819L88.6771 41.7125V36.2209H89.4509Z" fill="#BFBFBF"/>
<path d="M98.189 37.0092H95.9478V36.2209H101.404V37.0092H99.1362V42.8686H98.189V37.0092Z" fill="#BFBFBF"/>
<path d="M106.327 42.8686L109.169 36.2209H110.169L112.838 42.8686H111.824L111.09 41.1344H108.021L107.288 42.8686H106.327ZM108.342 40.3462H110.85L109.622 37.1274L108.342 40.3462Z" fill="#BFBFBF"/>
<path d="M119.281 42.8686V36.2209H120.215V42.0672H123.35V42.8686H119.281Z" fill="#BFBFBF"/>
<path d="M138.558 40.8848C138.558 41.8176 139.119 42.1986 140.026 42.1986C140.933 42.1986 141.734 41.9752 141.734 41.0425C141.734 40.3987 141.187 40.1491 140.626 40.0308C139.519 39.7944 137.665 39.5447 137.665 38.047C137.665 36.5493 138.999 36.0632 140.333 36.0632C141.667 36.0632 142.614 36.5756 142.614 37.8631H141.627C141.627 37.1143 140.96 36.8646 140.293 36.8646C139.626 36.8646 138.732 37.1011 138.732 37.8894C138.732 38.6777 139.265 38.6908 139.852 38.8747C141.107 39.2689 142.787 39.2689 142.787 40.9505C142.787 42.6321 141.453 42.9868 140.119 42.9868C138.785 42.9868 137.678 42.3956 137.718 40.9111L138.558 40.8848Z" fill="#BFBFBF"/>
<path d="M152.34 36.0764C154.434 36.0764 155.422 37.6003 155.422 39.5447C155.422 41.4891 154.434 43 152.34 43C150.245 43 149.312 41.4891 149.312 39.571C149.312 37.6529 150.232 36.0764 152.34 36.0764ZM152.34 42.2117C154.048 42.2117 154.434 40.8979 154.434 39.5841C154.434 38.2704 154.048 36.9566 152.34 36.9566C150.632 36.9566 150.232 38.2047 150.232 39.5841C150.232 40.9636 150.646 42.1986 152.34 42.1986V42.2117Z" fill="#BFBFBF"/>
<path d="M162.266 42.8686V36.2209H163.199V42.0672H166.335V42.8686H162.266Z" fill="#BFBFBF"/>
<path d="M178.368 40.2279C178.368 40.9387 178.081 41.6204 177.571 42.123C177.06 42.6257 176.368 42.908 175.646 42.908C174.925 42.908 174.232 42.6257 173.722 42.123C173.212 41.6204 172.925 40.9387 172.925 40.2279V36.2866H173.859V40.5169C173.859 40.9839 174.047 41.4316 174.382 41.7618C174.718 42.0919 175.172 42.2774 175.646 42.2774C176.12 42.2774 176.575 42.0919 176.91 41.7618C177.246 41.4316 177.434 40.9839 177.434 40.5169V36.2209H178.368V40.2279Z" fill="#BFBFBF"/>
<path d="M187.093 37.0092H184.838V36.2209H190.295V37.0092H188V42.8686H187.066L187.093 37.0092Z" fill="#BFBFBF"/>
<path d="M196.671 42.8686V36.2209H197.605V42.8686H196.671Z" fill="#BFBFBF"/>
<path d="M207.491 36.0764C209.585 36.0764 210.573 37.6003 210.573 39.5447C210.573 41.4891 209.585 43 207.491 43C205.396 43 204.409 41.4891 204.409 39.571C204.409 37.6529 205.343 36.0764 207.491 36.0764ZM207.491 42.2117C209.199 42.2117 209.585 40.8979 209.585 39.5841C209.585 38.2704 209.199 36.9566 207.491 36.9566C205.783 36.9566 205.343 38.1259 205.343 39.571C205.343 41.0162 205.783 42.1986 207.491 42.1986V42.2117Z" fill="#BFBFBF"/>
<path d="M222.886 36.2209V42.8686H221.726L218.324 37.2194V42.8686H217.497V36.2209H218.831L222.113 41.7125V36.2209H222.886Z" fill="#BFBFBF"/>
<path d="M230.691 40.8848C230.691 41.8176 231.264 42.1986 232.158 42.1986C233.052 42.1986 233.866 41.9752 233.866 41.0425C233.866 40.3987 233.319 40.1491 232.759 40.0308C231.651 39.7944 229.797 39.5447 229.797 38.047C229.797 36.5493 231.131 36.0632 232.398 36.0632C233.666 36.0632 234.68 36.5756 234.68 37.8631H233.693C233.693 37.1143 233.025 36.8646 232.358 36.8646C231.691 36.8646 230.798 37.1011 230.798 37.8894C230.798 38.6777 231.331 38.6908 231.932 38.8747C233.172 39.2689 234.853 39.2689 234.853 40.9505C234.853 42.6321 233.519 42.9868 232.118 42.9868C230.718 42.9868 229.677 42.3956 229.717 40.9111L230.691 40.8848Z" fill="#BFBFBF"/>
<path d="M83.8211 22.7678C82.4572 24.125 80.8693 25.2444 79.1251 26.0785C77.4589 26.8606 75.6344 27.2603 73.7887 27.2478C71.9226 27.2789 70.0727 26.902 68.3723 26.1442C65.2587 24.7731 62.8257 22.24 61.6085 19.1024C61.0022 17.5923 60.6899 15.9834 60.688 14.3596C60.6602 12.5504 61.0336 10.757 61.7819 9.1045C63.1477 6.00875 65.6979 3.56818 68.8793 2.31226C70.4349 1.6747 72.1038 1.34867 73.7887 1.3532C75.5434 1.36183 77.2777 1.72398 78.885 2.41736C80.5738 3.1359 82.1018 4.17622 83.3808 5.47846L79.8188 9.02567C78.9963 8.20725 78.0287 7.54383 76.9639 7.06814C75.9673 6.61931 74.8846 6.38635 73.7887 6.38497C72.719 6.37675 71.6596 6.59166 70.6803 7.01558C69.734 7.42324 68.8742 8.00263 68.1455 8.7235C67.3988 9.4579 66.807 10.3305 66.404 11.291C66.0011 12.2515 65.7949 13.281 65.7975 14.3202C65.7927 15.372 66.0061 16.4136 66.4246 17.3813C67.2384 19.2653 68.7646 20.7636 70.6803 21.5591C71.6606 21.9785 72.72 22.189 73.7887 22.1766C74.9931 22.2167 76.189 21.964 77.2707 21.4409C78.3824 20.8761 79.392 20.1348 80.2591 19.2469L83.8211 22.7678Z" fill="#BFBFBF"/>
<path d="M104.379 6.41125H97.2818V26.9982H92.1989V6.41125H85.0615V1.31378H104.379V6.41125Z" fill="#BFBFBF"/>
<path d="M119.494 27.2478C116.152 27.255 112.929 26.0267 110.463 23.8057C109.206 22.6566 108.194 21.272 107.488 19.733C106.723 18.0616 106.341 16.2452 106.367 14.4122C106.366 12.7349 106.701 11.074 107.354 9.52492C107.995 7.98192 108.927 6.57301 110.102 5.37338C111.284 4.16294 112.693 3.19022 114.251 2.50934C115.851 1.8253 117.573 1.46359 119.317 1.44553C121.061 1.42748 122.79 1.75346 124.404 2.40424C125.964 3.00432 127.391 3.89664 128.606 5.0318C129.842 6.20294 130.834 7.59959 131.528 9.14393C132.281 10.7954 132.659 12.5889 132.635 14.399C132.632 16.0575 132.301 17.6996 131.661 19.2338C131.042 20.7612 130.137 22.1605 128.993 23.359C127.812 24.5695 126.403 25.5422 124.844 26.2231C123.157 26.9398 121.332 27.2894 119.494 27.2478ZM119.494 6.42441C117.917 6.43567 116.377 6.90047 115.064 7.76169C113.751 8.62292 112.722 9.84307 112.104 11.2723C111.686 12.2494 111.473 13.2995 111.477 14.3596C111.47 15.4129 111.688 16.4558 112.117 17.4207C112.536 18.3499 113.124 19.1959 113.851 19.9169C114.58 20.6311 115.44 21.2018 116.386 21.5986C117.367 22.0157 118.426 22.226 119.494 22.216C120.563 22.2284 121.623 22.018 122.603 21.5986C124.519 20.8031 126.045 19.3048 126.859 17.4207C127.281 16.4493 127.499 15.4034 127.499 14.3465C127.499 13.2896 127.281 12.2437 126.859 11.2723C126.447 10.3348 125.863 9.47976 125.138 8.7498C124.407 8.0123 123.533 7.42655 122.568 7.02715C121.604 6.62775 120.568 6.4228 119.521 6.42441H119.494Z" fill="#BFBFBF"/>
<path d="M164.453 1.39258V26.9981H159.37V10.6679L150.112 19.7198L140.88 10.6679V26.9981H135.757V1.39258H138.638L150.165 12.6517L161.705 1.39258H164.453Z" fill="#BFBFBF"/>
<path d="M180.916 1.39258L192.509 26.9981H186.879L184.785 22.3605H174.966C174.646 23.0831 174.299 23.8713 173.912 24.699C173.525 25.5267 173.191 26.3018 172.898 26.9981H167.308L178.755 1.39258H180.916ZM182.503 17.3287L179.835 11.4561L177.167 17.3287H182.503Z" fill="#BFBFBF"/>
<path d="M200.727 26.9982H195.618V1.31377H206.024C207.076 1.30819 208.117 1.52315 209.079 1.94438C210.021 2.35264 210.876 2.93206 211.6 3.65229C212.335 4.37538 212.927 5.22615 213.348 6.16161C213.781 7.13018 214.004 8.1774 214.001 9.23586C214 11.3528 213.157 13.3851 211.653 14.8982C210.924 15.6112 210.064 16.1817 209.119 16.5799C208.151 16.9954 207.106 17.2058 206.05 17.1974H200.714L200.727 26.9982ZM200.727 12.1393H205.063C206.097 12.2275 207.126 11.9166 207.931 11.2722C208.223 11.0172 208.457 10.7035 208.616 10.3522C208.774 10.001 208.855 9.62032 208.852 9.23586C208.854 8.85735 208.772 8.48295 208.613 8.13829C208.454 7.79362 208.222 7.48683 207.931 7.23891C207.113 6.62054 206.09 6.32535 205.063 6.41123H200.727V12.1393Z" fill="#BFBFBF"/>
<path d="M235.013 6.41125H227.943V26.9982H222.833V6.41125H215.696V1.31378H235.013V6.41125Z" fill="#BFBFBF"/>
<path d="M24.2404 42.8424H23.0531L22.853 41.6862C22.853 41.6074 21.799 36.037 18.3171 36.037C14.8351 36.037 13.6077 41.6599 13.5944 41.7125L13.3676 42.8424H12.2069C7.77775 42.8424 4.45586 39.6367 3.74879 34.6969L0 8.3425C0.00352819 6.131 0.897189 4.01107 2.48513 2.4473C4.07308 0.88353 6.22578 0.00347448 8.47147 0H27.9759C30.2203 0.00348078 32.3717 0.883956 33.9575 2.4481C35.5433 4.01225 36.434 6.13221 36.434 8.3425V8.53957L32.6986 34.6969C31.9915 39.571 28.5896 42.8424 24.2404 42.8424Z" fill="#BFBFBF"/>
</g>
<defs>
<clipPath id="clip0_58_4093">
<rect width="235" height="43" fill="white"/>
</clipPath>
</defs>
</svg>
