<svg width="236" height="79" viewBox="0 0 236 79" fill="none" xmlns="http://www.w3.org/2000/svg">
<g clip-path="url(#clip0_58_4132)">
<path d="M0.737793 39.5C0.737793 25.6281 0.737793 18.6654 3.36432 13.4166C5.70192 8.78374 9.37905 5.03457 13.9492 2.67797C19.1234 0 25.8998 0 39.4264 0H42.9723C56.5252 0 63.2752 0 68.4496 2.67797C72.9933 5.03457 76.6968 8.78374 79.0082 13.4166C81.6347 18.6654 81.6347 25.6281 81.6347 39.5C81.6347 53.3719 81.6347 60.3346 79.0082 65.5834C76.6968 70.2163 72.9933 73.9654 68.4496 76.3221C63.2752 79 56.4988 79 42.9723 79H39.4264C25.8736 79 19.1234 79 13.9492 76.3221C9.40531 73.9654 5.70192 70.2163 3.39059 65.5834C0.737793 60.3346 0.737793 53.3719 0.737793 39.5Z" fill="#BFBFBF"/>
<path d="M32.5986 30.8497C32.5986 30.3676 32.9663 29.9926 33.3866 29.9926H37.1163C37.5628 29.9926 37.9042 30.3676 37.9042 30.8497V48.1492C37.9042 48.6313 37.5365 49.0061 37.1163 49.0061H33.3866C32.9401 49.0061 32.5986 48.6313 32.5986 48.1492V42.472C32.5986 41.99 32.231 41.615 31.8108 41.615H23.9049C23.4584 41.615 23.1169 41.99 23.1169 42.472V48.1492C23.1169 48.6313 22.7492 49.0061 22.3289 49.0061H18.573C18.1265 49.0061 17.7852 48.6313 17.7852 48.1492V30.8497C17.7852 30.3676 18.1527 29.9926 18.573 29.9926H22.3027C22.7492 29.9926 23.0906 30.3676 23.0906 30.8497V35.8842C23.0906 36.3661 23.4584 36.7411 23.8786 36.7411H31.7845C32.231 36.7411 32.5723 36.3661 32.5723 35.8842V30.8497H32.5986Z" fill="black"/>
<path d="M64.8415 39.5006C64.8415 40.7058 64.6313 41.8037 64.2373 42.8481C63.8171 43.8658 63.2131 44.7495 62.3726 45.4993C61.5321 46.2492 60.4816 46.865 59.1946 47.3203C58.1176 47.6952 56.8831 47.9095 55.4911 47.9897C55.0709 48.0165 54.7031 48.3915 54.7031 48.8736V49.0074C54.7031 49.4895 54.3354 49.8643 53.9152 49.8643H50.1855C49.739 49.8643 49.3975 49.4895 49.3975 49.0074V48.8736C49.3975 48.3915 49.0562 48.0165 48.6097 47.9897C47.1913 47.9095 45.9568 47.6952 44.88 47.3203C43.6193 46.865 42.5686 46.2492 41.7281 45.4993C40.8876 44.7495 40.2573 43.8389 39.8633 42.8481C39.4693 41.8037 39.2593 40.7058 39.2593 39.5006C39.2593 38.2955 39.4693 37.1975 39.8633 36.1531C40.2836 35.1087 40.8876 34.225 41.7281 33.4752C42.5686 32.7253 43.6193 32.1095 44.88 31.6809C45.9568 31.3061 47.2175 31.065 48.6097 31.0115C49.0562 30.9848 49.3975 30.6097 49.3975 30.1277V29.9939C49.3975 29.5118 49.7652 29.137 50.1855 29.137H53.9152C54.3617 29.137 54.7031 29.5118 54.7031 29.9939V30.1277C54.7031 30.6097 55.0446 30.9848 55.4911 31.0115C56.8831 31.0918 58.1176 31.3061 59.1946 31.6809C60.4816 32.1095 61.5321 32.7253 62.3726 33.4752C63.2131 34.225 63.8434 35.1355 64.2373 36.1531C64.6313 37.1975 64.8415 38.2955 64.8415 39.5006ZM44.4335 39.5006C44.4335 40.063 44.5385 40.5986 44.7223 41.1074C44.9325 41.5895 45.2477 42.018 45.668 42.3928C46.0882 42.7409 46.6397 43.0087 47.27 43.223C47.9267 43.4105 48.6884 43.5175 49.5814 43.5175C49.6077 43.5175 49.634 43.4908 49.634 43.464V35.5373C49.634 35.5105 49.6077 35.4837 49.5814 35.4837C48.6884 35.4837 47.9267 35.5908 47.27 35.805C46.6397 35.9926 46.0882 36.2871 45.668 36.6352C45.2477 36.9833 44.9325 37.385 44.7223 37.8939C44.5385 38.3759 44.4335 38.9115 44.4335 39.5006ZM54.4142 43.5175C55.3072 43.5175 56.0689 43.4105 56.7256 43.223C57.3822 43.0087 57.9076 42.7142 58.3277 42.3928C58.7479 42.018 59.0631 41.6162 59.2733 41.1074C59.4834 40.5986 59.5884 40.063 59.5884 39.5006C59.5884 38.9115 59.4834 38.3759 59.2733 37.8939C59.0631 37.4118 58.7743 36.9833 58.3277 36.6352C57.9076 36.2603 57.3822 35.9926 56.7256 35.805C56.0689 35.5908 55.3072 35.4837 54.4142 35.4837C54.3879 35.4837 54.3617 35.5105 54.3617 35.5373V43.464C54.3617 43.4908 54.3879 43.5175 54.4142 43.5175Z" fill="black"/>
<path d="M116.489 16.1751H120.429V34.1175H116.489V26.7263H109.66V34.0907H105.72V16.1484H109.66V23.1112H116.489V16.1751Z" fill="#BFBFBF"/>
<path d="M134.561 28.6538H126.078C126.419 30.4748 127.575 31.2782 129.729 31.2782C131.147 31.2782 132.565 30.9301 133.826 30.2606V33.4206C132.486 34.0901 131.016 34.4382 129.518 34.4115C125.158 34.4115 122.479 31.8138 122.479 27.5826C122.479 23.4317 125.027 20.62 128.731 20.62C132.25 20.62 134.561 23.2712 134.561 27.3416V28.6538ZM126.078 26.1097H131.199C131.042 24.4494 130.254 23.5925 128.757 23.5925C127.286 23.5925 126.367 24.4494 126.078 26.1097Z" fill="#BFBFBF"/>
<path d="M136.14 27.5029C136.14 23.4057 138.871 20.5938 142.837 20.5938C144.046 20.5671 145.254 20.8884 146.304 21.5044V25.2C145.411 24.4234 144.282 23.9949 143.1 23.9949C140.999 23.9949 139.843 25.2535 139.843 27.5029C139.843 29.7525 141.025 30.9844 143.1 30.9844C144.282 30.9844 145.411 30.5559 146.304 29.7793V33.5016C145.254 34.1177 144.046 34.439 142.837 34.4122C138.845 34.4122 136.14 31.6271 136.14 27.5029Z" fill="#BFBFBF"/>
<path d="M161.584 34.1183H157.013L152.706 28.3071V34.1183H149.002V20.916H152.706V26.2718L157.013 20.889H161.479L156.278 27.1287L161.584 34.1183Z" fill="#BFBFBF"/>
<path d="M171.858 20.9411H175.614L169.022 34.09H165.266L167.445 29.6445L162.193 20.9144H166.159L169.205 26.0827L171.858 20.9411Z" fill="#BFBFBF"/>
<path d="M183.753 20.9144H187.456V34.1167H183.753V29.698C182.965 29.9123 182.15 30.0194 181.31 30.0194C178.053 30.0194 176.241 28.3055 176.241 25.1455V20.9144H179.944V24.717C179.944 26.056 180.574 26.6451 181.967 26.6451C182.571 26.6451 183.176 26.538 183.727 26.3505V20.9144H183.753Z" fill="#BFBFBF"/>
<path d="M198.2 20.9144H201.93V34.1167H198.227V29.0017H194.182V34.1167H190.453V20.9144H194.156V25.7882H198.174L198.2 20.9144Z" fill="#BFBFBF"/>
<path d="M211.409 24.958C214.247 24.958 216.111 26.7523 216.111 29.5373C216.111 32.3225 214.22 34.09 211.409 34.09H204.922V20.9144H208.547V24.9848H211.409V24.958ZM210.674 31.3048C211.909 31.3048 212.539 30.7157 212.539 29.5373C212.539 28.3591 211.935 27.77 210.674 27.77H208.547V31.3048H210.674ZM217.714 20.9144H221.417V34.1167H217.714V20.9144Z" fill="#BFBFBF"/>
<path d="M235.738 28.6538H227.255C227.595 30.4748 228.752 31.2782 230.905 31.2782C232.324 31.2782 233.742 30.9301 235.003 30.2606V33.4206C233.663 34.0901 232.193 34.4382 230.696 34.4115C226.308 34.4115 223.629 31.8138 223.629 27.5826C223.629 23.4317 226.177 20.62 229.88 20.62C233.401 20.62 235.712 23.2712 235.712 27.3416V28.6538H235.738ZM227.255 26.1097H232.376C232.193 24.4494 231.404 23.5925 229.934 23.5925C228.462 23.5925 227.517 24.4494 227.255 26.1097Z" fill="#BFBFBF"/>
<path d="M115.334 58.8087V64.3253H111.631V58.8087C107.323 58.6747 104.592 56.0235 104.592 51.9263C104.592 47.829 107.35 45.1243 111.631 45.0172V39.9022H115.334V45.0172C119.642 45.151 122.4 47.829 122.4 51.9263C122.4 56.0235 119.668 58.6747 115.334 58.8087ZM111.762 55.5952V48.2575C109.398 48.311 108.19 49.5697 108.19 51.9531C108.19 54.3097 109.398 55.5416 111.762 55.5952ZM115.203 55.5952C117.567 55.5416 118.827 54.283 118.827 51.9263C118.827 49.5697 117.593 48.2843 115.203 48.2308V55.5952Z" fill="#BFBFBF"/>
<path d="M128.282 53.2122L132.721 45.2854H136.45V58.4877H132.826V50.3735L128.282 58.4877H124.657V45.2854H128.282V53.2122Z" fill="#BFBFBF"/>
<path d="M147.189 45.3105H150.892V58.5129H147.189V53.3981H143.17V58.5129H139.467V45.3105H143.17V50.1845H147.189V45.3105Z" fill="#BFBFBF"/>
<path d="M164.14 50.2121V58.5139H160.779V56.9071C160.438 57.523 159.939 58.005 159.335 58.3531C158.73 58.7014 158.048 58.862 157.365 58.8084C155.001 58.8084 153.32 57.2284 153.32 55.0326C153.32 53.1312 154.581 51.7386 156.892 51.2834L160.464 50.6139C160.411 49.1946 159.361 48.3912 157.654 48.3912C156.288 48.418 154.948 48.8464 153.819 49.6765V46.222C155.132 45.3918 156.682 44.9902 158.231 45.0437C161.909 45.017 164.14 46.945 164.14 50.2121ZM160.464 55.0326V53.1043L158.205 53.5328C157.312 53.6936 156.892 54.122 156.892 54.845C156.892 55.6217 157.444 56.0502 158.389 56.0502C158.783 56.077 159.177 55.9698 159.545 55.8092C159.912 55.6217 160.228 55.3539 160.464 55.0326Z" fill="#BFBFBF"/>
<path d="M174.669 45.3105H178.372V58.5129H174.669V53.3981H170.651V58.5129H166.948V45.3105H170.651V50.1845H174.669V45.3105Z" fill="#BFBFBF"/>
<path d="M180.602 51.9261C180.602 47.8287 183.335 45.0169 187.3 45.0169C188.509 44.99 189.717 45.3115 190.767 45.9274V49.623C189.874 48.8463 188.744 48.418 187.563 48.418C185.462 48.418 184.307 49.6765 184.307 51.9261C184.307 54.1755 185.488 55.4074 187.563 55.4074C188.744 55.4074 189.874 54.9788 190.767 54.2022V57.898C189.717 58.5139 188.509 58.8352 187.3 58.8084C183.309 58.8084 180.602 56.0233 180.602 51.9261Z" fill="#BFBFBF"/>
<path d="M199.938 49.3542C202.775 49.3542 204.64 51.1485 204.64 53.9336C204.64 56.7186 202.775 58.5129 199.938 58.5129H193.451V45.3105H197.076V49.3811H199.938V49.3542ZM199.203 55.7011C200.437 55.7011 201.068 55.1119 201.068 53.9336C201.068 52.7552 200.463 52.1661 199.203 52.1661H197.076V55.7011H199.203ZM206.243 45.3105H209.946V58.5397H206.243V45.3105Z" fill="#BFBFBF"/>
</g>
<defs>
<clipPath id="clip0_58_4132">
<rect width="235" height="79" fill="white" transform="translate(0.737793)"/>
</clipPath>
</defs>
</svg>
