<svg width="233" height="49" viewBox="0 0 233 49" fill="none" xmlns="http://www.w3.org/2000/svg">
<g clip-path="url(#clip0_58_4117)">
<path d="M0 21.1419C0 12.3334 0 7.92915 2.23998 4.84167C2.9634 3.84455 3.83906 2.96764 4.83475 2.24318C7.91783 0 12.3158 0 21.1117 0H27.7579C36.5539 0 40.9519 0 44.0349 2.24318C45.0306 2.96764 45.9063 3.84455 46.6297 4.84167C48.8696 7.92915 48.8696 12.3334 48.8696 21.1419V27.7976C48.8696 36.6062 48.8696 41.0104 46.6297 44.0979C45.9063 45.0951 45.0306 45.972 44.0349 46.6964C40.9519 48.9395 36.5539 48.9395 27.7579 48.9395H21.1117C12.3158 48.9395 7.91783 48.9395 4.83475 46.6964C3.83906 45.972 2.9634 45.0951 2.23998 44.0979C0 41.0104 0 36.6062 0 27.7976V21.1419Z" fill="#BFBFBF"/>
<path d="M21.7582 19.8C23.5184 19.8 24.8808 20.2211 25.845 21.0633C26.8206 21.9053 27.3082 23.0001 27.3082 24.3475C27.3082 25.6949 26.8206 26.7898 25.845 27.632C24.8808 28.4741 23.5184 28.8951 21.7582 28.8951H19.9682C19.7028 28.8951 19.4876 29.1105 19.4876 29.3762V30.0981C19.4876 30.3639 19.2725 30.5794 19.0071 30.5794H16.9408C16.6754 30.5794 16.4603 30.3639 16.4603 30.0981V29.3762C16.4603 29.1105 16.2451 28.8951 15.9797 28.8951H14.1898C12.4294 28.8951 11.0615 28.4741 10.086 27.632C9.12177 26.7898 8.63965 25.6949 8.63965 24.3475C8.63965 23.0001 9.12177 21.9053 10.086 21.0633C11.0615 20.2211 12.4294 19.8 14.1898 19.8H15.9797C16.2451 19.8 16.4603 19.5846 16.4603 19.3188V18.597C16.4603 18.3312 16.6754 18.1158 16.9408 18.1158H19.0071C19.2725 18.1158 19.4876 18.3312 19.4876 18.597V19.3188C19.4876 19.5846 19.7028 19.8 19.9682 19.8H21.7582ZM14.2739 26.4528H16.22C16.3527 26.4528 16.4603 26.3452 16.4603 26.2122V22.4829C16.4603 22.3499 16.3527 22.2422 16.22 22.2422H14.2739C13.5002 22.2422 12.9004 22.4331 12.4743 22.8149C12.0482 23.1967 11.8352 23.7075 11.8352 24.3475C11.8352 24.9877 12.0482 25.4985 12.4743 25.8803C12.9004 26.2621 13.5002 26.4528 14.2739 26.4528ZM21.6741 26.4528C22.4476 26.4528 23.0475 26.2621 23.4737 25.8803C23.8996 25.4985 24.1127 24.9877 24.1127 24.3475C24.1127 23.7075 23.8996 23.1967 23.4737 22.8149C23.0475 22.4331 22.4476 22.2422 21.6741 22.2422H19.7279C19.5952 22.2422 19.4876 22.3499 19.4876 22.4829V26.2122C19.4876 26.3452 19.5952 26.4528 19.7279 26.4528H21.6741Z" fill="black"/>
<path d="M39.8841 18.4526C40.1495 18.4526 40.3647 18.6681 40.3647 18.9339V20.582C40.3647 20.8478 40.1495 21.0633 39.8841 21.0633H36.136C35.8706 21.0633 35.6554 21.2787 35.6554 21.5445V29.7612C35.6554 30.027 35.4404 30.2425 35.175 30.2425H33.1087C32.8433 30.2425 32.6281 30.027 32.6281 29.7612V21.5445C32.6281 21.2787 32.4131 21.0633 32.1477 21.0633H28.3996C28.1342 21.0633 27.9189 20.8478 27.9189 20.582V18.9339C27.9189 18.6681 28.1342 18.4526 28.3996 18.4526H39.8841Z" fill="black"/>
<path d="M79.7449 36.6987C79.427 36.6987 79.2681 36.6987 79.1567 36.6176C79.1207 36.5913 79.0892 36.5597 79.0629 36.5237C78.982 36.4121 78.982 36.253 78.982 35.9346V34.4701C78.982 34.1534 78.982 33.995 78.9047 33.8851C78.879 33.8486 78.8502 33.8187 78.8149 33.7915C78.7081 33.7101 78.5452 33.7039 78.219 33.6916C76.8036 33.638 75.4592 33.4333 74.1858 33.0777C72.7098 32.659 71.4186 32.0186 70.3118 31.1566C69.2297 30.2945 68.3686 29.1985 67.7291 27.8683C67.0897 26.5383 66.77 24.9495 66.77 23.1021C66.77 21.2793 67.0897 19.703 67.7291 18.3729C68.3686 17.0428 69.2419 15.959 70.3487 15.1216C71.4554 14.2595 72.7469 13.6314 74.2226 13.2373C75.4931 12.8827 76.8252 12.6782 78.219 12.6239C78.5454 12.6112 78.7085 12.6048 78.8151 12.5234C78.8504 12.4964 78.8792 12.4664 78.9049 12.43C78.982 12.3201 78.982 12.1618 78.982 11.845V10.5284C78.982 10.21 78.982 10.0508 79.0629 9.93922C79.0892 9.90318 79.1207 9.87149 79.1567 9.84532C79.2681 9.76422 79.427 9.76422 79.7449 9.76422H82.6462C82.9642 9.76422 83.123 9.76422 83.2344 9.84532C83.2704 9.87149 83.3022 9.90318 83.3283 9.93922C83.4092 10.0508 83.4092 10.21 83.4092 10.5284V11.845C83.4092 12.1618 83.4092 12.3202 83.4865 12.4301C83.5121 12.4665 83.5409 12.4965 83.5763 12.5235C83.6831 12.6049 83.8462 12.6111 84.1722 12.6235C85.5841 12.6773 86.9163 12.8819 88.1687 13.2373C89.669 13.656 90.9603 14.2964 92.0425 15.1585C93.1249 15.996 93.9734 17.0798 94.5883 18.4099C95.2278 19.7399 95.5474 21.304 95.5474 23.1021C95.5474 24.9249 95.2278 26.5137 94.5883 27.8683C93.9734 29.1985 93.1249 30.2945 92.0425 31.1566C90.9603 32.0186 89.669 32.659 88.1687 33.0777C86.9163 33.4333 85.5841 33.6377 84.1722 33.6916C83.8462 33.7039 83.6831 33.7103 83.5763 33.7917C83.5409 33.8187 83.5121 33.8486 83.4865 33.8851C83.4092 33.995 83.4092 34.1534 83.4092 34.4701V35.9346C83.4092 36.253 83.4092 36.4121 83.3283 36.5237C83.3022 36.5597 83.2704 36.5913 83.2344 36.6176C83.123 36.6987 82.9642 36.6987 82.6462 36.6987H79.7449ZM84.0612 16.5106C83.7566 16.4927 83.6043 16.4839 83.4854 16.5641C83.4486 16.589 83.4124 16.6231 83.3855 16.6585C83.2986 16.7726 83.2986 16.9326 83.2986 17.2528V29.0623C83.2986 29.3824 83.2986 29.5425 83.3855 29.6567C83.4124 29.6921 83.4486 29.7262 83.4854 29.751C83.6043 29.8312 83.7566 29.8223 84.0612 29.8045C84.8383 29.7591 85.5803 29.6433 86.287 29.457C87.2463 29.1862 88.0702 28.792 88.7589 28.2747C89.4723 27.7329 90.0258 27.0431 90.4191 26.2057C90.8374 25.3436 91.0465 24.3091 91.0465 23.1021C91.0465 21.8705 90.8374 20.836 90.4191 19.9986C90.0258 19.1611 89.4723 18.4837 88.7589 17.9665C88.0702 17.4492 87.2463 17.0798 86.287 16.8581C85.5803 16.6718 84.8383 16.556 84.0612 16.5106ZM71.2709 23.1021C71.2709 24.3091 71.4802 25.3436 71.8983 26.2057C72.3165 27.0677 72.882 27.7698 73.5954 28.3116C74.3086 28.829 75.1326 29.2108 76.0674 29.457C76.7884 29.6422 77.5304 29.7578 78.2931 29.8037C78.5973 29.8221 78.7494 29.8312 78.8684 29.751C78.9053 29.7262 78.9417 29.6919 78.9686 29.6567C79.0557 29.5425 79.0557 29.3824 79.0557 29.0623V17.2528C79.0557 16.9327 79.0557 16.7727 78.9688 16.6586C78.9419 16.6232 78.9059 16.5891 78.8689 16.5642C78.7502 16.4839 78.5979 16.4928 78.2931 16.5104C77.5107 16.5558 76.7564 16.6716 76.0305 16.8581C75.0957 17.0798 74.2718 17.4492 73.5586 17.9665C72.8698 18.4837 72.3165 19.1734 71.8983 20.0355C71.4802 20.873 71.2709 21.8951 71.2709 23.1021Z" fill="#BFBFBF"/>
<path d="M103.736 35.529C103.639 35.6836 103.59 35.7611 103.519 35.8105C103.495 35.8266 103.47 35.8406 103.444 35.8516C103.364 35.8858 103.273 35.8858 103.09 35.8858H99.958C99.6401 35.8858 99.481 35.8858 99.3696 35.8048C99.3336 35.7785 99.302 35.7468 99.2759 35.7108C99.1948 35.5992 99.1948 35.4401 99.1948 35.1217V18.7676C99.1948 18.4492 99.1948 18.29 99.2759 18.1784C99.302 18.1424 99.3336 18.1107 99.3696 18.0845C99.481 18.0034 99.6401 18.0034 99.958 18.0034H102.527C102.845 18.0034 103.004 18.0034 103.115 18.0845C103.151 18.1107 103.183 18.1424 103.209 18.1784C103.29 18.29 103.29 18.4492 103.29 18.7676V28.9738C103.29 29.4492 103.29 29.687 103.394 29.7487C103.425 29.7674 103.461 29.7778 103.498 29.7786C103.618 29.7809 103.744 29.5794 103.995 29.1764L110.74 18.3628C110.837 18.207 110.886 18.1291 110.957 18.0794C110.981 18.063 111.006 18.0491 111.032 18.0378C111.112 18.0034 111.204 18.0034 111.387 18.0034H114.665C114.983 18.0034 115.142 18.0034 115.254 18.0845C115.29 18.1107 115.321 18.1424 115.347 18.1784C115.428 18.29 115.428 18.4492 115.428 18.7676V35.1217C115.428 35.4401 115.428 35.5992 115.347 35.7108C115.321 35.7468 115.29 35.7785 115.254 35.8048C115.142 35.8858 114.983 35.8858 114.665 35.8858H112.059C111.741 35.8858 111.582 35.8858 111.471 35.8048C111.435 35.7785 111.403 35.7468 111.377 35.7108C111.296 35.5992 111.296 35.4401 111.296 35.1217V24.8322C111.296 24.3598 111.296 24.1235 111.193 24.0617C111.162 24.0428 111.126 24.0325 111.089 24.0316C110.969 24.0288 110.843 24.2287 110.592 24.6285L103.736 35.529Z" fill="#BFBFBF"/>
<path d="M120.618 35.8858C120.3 35.8858 120.142 35.8858 120.03 35.8048C119.994 35.7785 119.963 35.7468 119.936 35.7108C119.855 35.5992 119.855 35.4401 119.855 35.1217V18.7676C119.855 18.4492 119.855 18.29 119.936 18.1784C119.963 18.1424 119.994 18.1107 120.03 18.0845C120.142 18.0034 120.3 18.0034 120.618 18.0034H123.335C123.653 18.0034 123.812 18.0034 123.923 18.0845C123.959 18.1107 123.991 18.1424 124.017 18.1784C124.098 18.29 124.098 18.4492 124.098 18.7676V24.0745C124.098 24.3928 124.098 24.5519 124.179 24.6637C124.205 24.6996 124.237 24.7314 124.273 24.7575C124.385 24.8387 124.543 24.8387 124.861 24.8387H131.083C131.401 24.8387 131.56 24.8387 131.671 24.7575C131.707 24.7314 131.739 24.6996 131.765 24.6637C131.846 24.5519 131.846 24.3928 131.846 24.0745V18.7676C131.846 18.4492 131.846 18.29 131.927 18.1784C131.953 18.1424 131.985 18.1107 132.021 18.0845C132.132 18.0034 132.291 18.0034 132.609 18.0034H135.326C135.644 18.0034 135.803 18.0034 135.914 18.0845C135.95 18.1107 135.982 18.1424 136.008 18.1784C136.089 18.29 136.089 18.4492 136.089 18.7676V35.1217C136.089 35.4401 136.089 35.5992 136.008 35.7108C135.982 35.7468 135.95 35.7785 135.914 35.8048C135.803 35.8858 135.644 35.8858 135.326 35.8858H132.609C132.291 35.8858 132.132 35.8858 132.021 35.8048C131.985 35.7785 131.953 35.7468 131.927 35.7108C131.846 35.5992 131.846 35.4401 131.846 35.1217V29.3713C131.846 29.0529 131.846 28.8938 131.765 28.7823C131.739 28.7462 131.707 28.7144 131.671 28.6883C131.56 28.6073 131.401 28.6073 131.083 28.6073H124.861C124.543 28.6073 124.385 28.6073 124.273 28.6883C124.237 28.7144 124.205 28.7462 124.179 28.7823C124.098 28.8938 124.098 29.0529 124.098 29.3713V35.1217C124.098 35.4401 124.098 35.5992 124.017 35.7108C123.991 35.7468 123.959 35.7785 123.923 35.8048C123.812 35.8858 123.653 35.8858 123.335 35.8858H120.618Z" fill="#BFBFBF"/>
<path d="M139.583 21.7721C139.265 21.7721 139.106 21.7721 138.994 21.6908C138.958 21.6648 138.927 21.6332 138.9 21.5971C138.819 21.4855 138.819 21.3262 138.819 21.0079V18.7676C138.819 18.4492 138.819 18.29 138.9 18.1784C138.927 18.1424 138.958 18.1107 138.994 18.0845C139.106 18.0034 139.265 18.0034 139.583 18.0034H154.327C154.645 18.0034 154.804 18.0034 154.915 18.0845C154.951 18.1107 154.983 18.1424 155.009 18.1784C155.09 18.29 155.09 18.4492 155.09 18.7676V21.0079C155.09 21.3262 155.09 21.4855 155.009 21.5971C154.983 21.6332 154.951 21.6648 154.915 21.6908C154.804 21.7721 154.645 21.7721 154.327 21.7721H149.839C149.521 21.7721 149.362 21.7721 149.251 21.8531C149.215 21.8792 149.183 21.911 149.157 21.9471C149.076 22.0587 149.076 22.2178 149.076 22.5362V35.1217C149.076 35.4401 149.076 35.5992 148.995 35.7108C148.969 35.7468 148.937 35.7785 148.901 35.8048C148.79 35.8858 148.631 35.8858 148.313 35.8858H145.596C145.278 35.8858 145.119 35.8858 145.008 35.8048C144.972 35.7785 144.94 35.7468 144.914 35.7108C144.833 35.5992 144.833 35.4401 144.833 35.1217V22.5362C144.833 22.2178 144.833 22.0587 144.752 21.9471C144.726 21.911 144.694 21.8792 144.658 21.8531C144.547 21.7721 144.388 21.7721 144.07 21.7721H139.583Z" fill="#BFBFBF"/>
<path d="M168.786 35.8858C168.468 35.8858 168.309 35.8858 168.198 35.8048C168.162 35.7785 168.13 35.7469 168.104 35.7108C168.023 35.5992 168.023 35.4401 168.023 35.1218V35.01C168.023 34.5904 168.023 34.3806 167.94 34.317C167.912 34.2951 167.888 34.2841 167.853 34.2771C167.751 34.2563 167.581 34.4044 167.24 34.7007C166.816 35.07 166.327 35.3791 165.773 35.6272C164.862 36.046 163.817 36.2553 162.636 36.2553C160.841 36.2553 159.365 35.7874 158.209 34.8513C157.053 33.9154 156.475 32.6098 156.475 30.9349C156.475 29.0875 157.078 27.7452 158.283 26.9078C159.513 26.0455 161.161 25.5653 163.227 25.4668C164.063 25.4174 164.862 25.4051 165.625 25.4297C166.11 25.4297 166.584 25.4348 167.049 25.4448C167.38 25.4518 167.545 25.4554 167.66 25.3746C167.697 25.3483 167.729 25.3171 167.755 25.2804C167.839 25.168 167.839 25.0038 167.839 24.6758V24.0628C167.839 23.0283 167.531 22.277 166.916 21.809C166.301 21.3411 165.502 21.107 164.518 21.107C163.534 21.107 162.76 21.3534 162.194 21.8459C161.78 22.2063 161.452 22.659 161.209 23.2037C161.08 23.4926 161.016 23.6371 160.923 23.7039C160.89 23.7281 160.863 23.7423 160.825 23.7567C160.717 23.797 160.581 23.7739 160.308 23.7275L157.84 23.3077C157.516 23.2525 157.354 23.2249 157.254 23.1115C157.225 23.0773 157.196 23.0304 157.179 22.9882C157.124 22.8478 157.169 22.7033 157.261 22.4142C157.659 21.1521 158.394 20.0882 159.464 19.2227C160.743 18.1636 162.452 17.634 164.592 17.634C166.707 17.634 168.466 18.1266 169.868 19.1119C171.27 20.0725 171.971 21.735 171.971 24.0997V35.1218C171.971 35.4401 171.971 35.5992 171.89 35.7108C171.864 35.7469 171.832 35.7785 171.796 35.8048C171.685 35.8858 171.526 35.8858 171.208 35.8858H168.786ZM167.839 29.0447C167.839 28.7373 167.839 28.5838 167.758 28.4726C167.733 28.4374 167.7 28.4043 167.665 28.3786C167.555 28.2976 167.406 28.2963 167.107 28.294C166.721 28.291 166.314 28.2968 165.883 28.3116C165.17 28.3116 164.469 28.3239 163.78 28.3487C162.821 28.3733 162.059 28.5827 161.493 28.9768C160.952 29.3709 160.681 29.9373 160.681 30.6763C160.681 31.4151 160.939 31.994 161.456 32.4128C161.972 32.8069 162.661 33.0039 163.522 33.0039C164.776 33.0039 165.81 32.7085 166.621 32.1173C167.433 31.5015 167.839 30.7009 167.839 29.7156V29.0447Z" fill="#BFBFBF"/>
<path d="M193.188 27.2402C193.188 29.9991 192.426 32.1911 190.901 33.8168C189.376 35.4425 187.31 36.2554 184.702 36.2554C181.702 36.2554 179.439 35.3933 177.914 33.669C176.389 31.9202 175.626 29.2969 175.626 25.7993V22.8805C175.626 20.7376 175.86 18.9395 176.328 17.4862C176.819 16.0083 177.508 14.8137 178.394 13.9023C179.279 12.9664 180.361 12.2767 181.64 11.8333C182.919 11.3653 184.346 11.0451 185.92 10.8727C187.101 10.7495 188.195 10.6264 189.204 10.5032C189.912 10.4167 190.578 10.3362 191.202 10.2619C191.521 10.2237 191.681 10.2047 191.802 10.2735C191.841 10.2957 191.877 10.3241 191.907 10.3574C192 10.4606 192.017 10.6211 192.05 10.9421L192.299 13.3701C192.331 13.6845 192.348 13.8416 192.279 13.9605C192.257 13.9989 192.229 14.0336 192.196 14.0633C192.095 14.1554 191.938 14.1728 191.624 14.2077C190.937 14.2842 190.192 14.3671 189.388 14.4566C188.306 14.5797 187.236 14.7029 186.178 14.826C184.063 15.0477 182.44 15.6635 181.308 16.6734C180.396 17.4676 179.852 18.6779 179.675 20.3044C179.628 20.7382 179.604 20.9551 179.689 21.0279C179.717 21.0514 179.745 21.0657 179.781 21.0736C179.89 21.0981 180.066 20.933 180.418 20.6028C180.915 20.1361 181.507 19.75 182.194 19.4444C183.325 18.9518 184.493 18.7055 185.699 18.7055C187.961 18.7055 189.769 19.4321 191.122 20.8854C192.499 22.3139 193.188 24.4324 193.188 27.2402ZM184.592 32.8192C186.068 32.8192 187.174 32.3267 187.912 31.3414C188.675 30.3315 189.056 28.9892 189.056 27.3142C189.056 25.6145 188.675 24.3214 187.912 23.4348C187.15 22.5479 186.068 22.1045 184.666 22.1045C183.337 22.1045 182.206 22.4864 181.271 23.25C180.337 24.0136 179.869 24.9987 179.869 26.2057V26.9447C179.869 28.9397 180.288 30.4178 181.124 31.3783C181.985 32.339 183.141 32.8192 184.592 32.8192Z" fill="#BFBFBF"/>
<path d="M197.996 28.7551C198.021 28.0653 198.046 27.2525 198.07 26.3166C198.095 25.3559 198.107 24.3829 198.107 23.3978C198.132 22.3879 198.144 21.4149 198.144 20.4789C198.16 19.8504 198.171 19.28 198.176 18.7675C198.18 18.4468 198.182 18.2864 198.263 18.1762C198.289 18.1403 198.32 18.1094 198.356 18.0834C198.467 18.0034 198.626 18.0034 198.944 18.0034H211.216C211.534 18.0034 211.693 18.0034 211.805 18.0845C211.841 18.1107 211.873 18.1424 211.899 18.1784C211.979 18.29 211.979 18.4492 211.979 18.7676V35.1217C211.979 35.4401 211.979 35.5992 211.899 35.7108C211.873 35.7468 211.841 35.7785 211.805 35.8048C211.693 35.8858 211.534 35.8858 211.216 35.8858H208.5C208.182 35.8858 208.023 35.8858 207.911 35.8048C207.875 35.7785 207.844 35.7468 207.818 35.7108C207.736 35.5992 207.736 35.4401 207.736 35.1217V22.5362C207.736 22.2178 207.736 22.0587 207.656 21.9471C207.629 21.911 207.598 21.8792 207.562 21.8531C207.45 21.7721 207.291 21.7721 206.973 21.7721H202.818C202.5 21.7721 202.342 21.7721 202.231 21.8516C202.195 21.8775 202.164 21.9081 202.137 21.9439C202.056 22.0536 202.054 22.2146 202.049 22.5362C202.043 22.9288 202.033 23.339 202.018 23.7671C202.018 24.4815 202.005 25.1834 201.981 25.8732C201.956 26.5628 201.932 27.2278 201.907 27.8682C201.907 28.5086 201.907 29.0629 201.907 29.5308C201.833 31.871 201.391 33.5213 200.579 34.4818C199.767 35.4179 198.365 35.8858 196.373 35.8858H195.218C194.9 35.8858 194.741 35.8858 194.629 35.8048C194.593 35.7785 194.562 35.7468 194.536 35.7108C194.455 35.5992 194.455 35.4401 194.455 35.1217V32.8813C194.455 32.5629 194.455 32.4038 194.536 32.2922C194.562 32.2562 194.593 32.2246 194.629 32.1983C194.741 32.1172 194.9 32.1172 195.218 32.1172H195.524C196.41 32.1172 197.037 31.871 197.406 31.3782C197.775 30.8857 197.972 30.0113 197.996 28.7551Z" fill="#BFBFBF"/>
<path d="M224.133 36.2553C221.503 36.2553 219.374 35.4302 217.751 33.7799C216.129 32.1296 215.315 29.8389 215.315 26.9078C215.315 23.9765 216.116 21.6981 217.715 20.0725C219.338 18.4468 221.477 17.634 224.133 17.634C226.815 17.634 228.942 18.4468 230.518 20.0725C232.115 21.6981 232.915 23.9765 232.915 26.9078C232.915 29.8143 232.115 32.105 230.518 33.7799C228.942 35.4302 226.815 36.2553 224.133 36.2553ZM224.133 32.6715C225.61 32.6715 226.741 32.1788 227.529 31.1935C228.315 30.1836 228.709 28.7551 228.709 26.9078C228.709 25.0604 228.315 23.6564 227.529 22.6957C226.741 21.7104 225.61 21.2178 224.133 21.2178C222.708 21.2178 221.577 21.7104 220.74 22.6957C219.929 23.6564 219.522 25.0604 219.522 26.9078C219.522 28.7551 219.942 30.1836 220.776 31.1935C221.613 32.1788 222.731 32.6715 224.133 32.6715Z" fill="#BFBFBF"/>
</g>
<defs>
<clipPath id="clip0_58_4117">
<rect width="233" height="49" fill="white"/>
</clipPath>
</defs>
</svg>
