<svg width="244" height="75" viewBox="0 0 244 75" fill="none" xmlns="http://www.w3.org/2000/svg">
<path d="M70.68 43.624C70.68 44.264 70.696 44.856 70.728 45.4C70.776 45.928 70.832 46.288 70.896 46.48L65.208 52.336L63.504 51.04C64.464 49.904 65.104 48.936 65.424 48.136C65.76 47.336 65.928 46.344 65.928 45.16V29.608L62.736 28.864L63.624 27.136H72.96V28.648L70.68 30.424V43.624ZM86.0503 26.656C87.9383 26.656 89.6023 27.064 91.0423 27.88C92.4823 28.696 93.5943 29.824 94.3783 31.264C95.1623 32.704 95.5543 34.336 95.5543 36.16C95.5543 38.032 94.9543 39.76 93.7543 41.344C92.5703 42.928 91.0983 44.184 89.3383 45.112C87.5783 46.024 85.9143 46.48 84.3463 46.48C82.4743 46.48 80.8183 46.08 79.3783 45.28C77.9543 44.464 76.8423 43.336 76.0423 41.896C75.2583 40.456 74.8663 38.824 74.8663 37C74.8663 35.128 75.4583 33.4 76.6423 31.816C77.8263 30.216 79.2983 28.96 81.0583 28.048C82.8183 27.12 84.4823 26.656 86.0503 26.656ZM84.6583 29.656C83.8103 29.656 83.0343 29.928 82.3303 30.472C81.6263 31 81.0663 31.736 80.6503 32.68C80.2503 33.624 80.0503 34.68 80.0503 35.848C80.0503 37.256 80.2583 38.536 80.6743 39.688C81.0903 40.84 81.7223 41.76 82.5703 42.448C83.4343 43.136 84.4903 43.48 85.7383 43.48C86.5863 43.48 87.3623 43.216 88.0663 42.688C88.7703 42.144 89.3303 41.4 89.7463 40.456C90.1623 39.512 90.3703 38.456 90.3703 37.288C90.3703 35.88 90.1623 34.6 89.7463 33.448C89.3303 32.28 88.6903 31.36 87.8263 30.688C86.9623 30 85.9063 29.656 84.6583 29.656ZM111.844 35.776C112.98 36.224 113.868 36.864 114.508 37.696C115.164 38.528 115.492 39.456 115.492 40.48C115.492 41.488 115.044 42.44 114.148 43.336C113.252 44.216 112.14 44.92 110.812 45.448C109.484 45.976 108.22 46.24 107.02 46.24C106.22 46.24 105.436 46.2 104.668 46.12C103.388 46.04 102.396 46 101.692 46H97.8758V44.464L100.132 42.688V29.536L97.4438 28.864L98.3078 27.136H101.668C103.124 27.136 104.556 27.088 105.964 26.992C107.052 26.928 107.852 26.896 108.364 26.896C109.596 26.896 110.676 27.104 111.604 27.52C112.532 27.936 113.252 28.504 113.764 29.224C114.276 29.928 114.532 30.72 114.532 31.6C114.532 32.384 114.292 33.136 113.812 33.856C113.332 34.56 112.684 35.192 111.868 35.752L111.844 35.776ZM109.54 32.944C109.54 31.824 109.284 30.928 108.772 30.256C108.26 29.568 107.5 29.224 106.492 29.224C105.916 29.224 105.38 29.32 104.884 29.512V35.608H107.332C108.804 35.608 109.54 34.72 109.54 32.944ZM107.668 43.72C108.532 43.72 109.212 43.496 109.708 43.048C110.22 42.6 110.476 41.984 110.476 41.2C110.476 40.16 110.188 39.304 109.612 38.632C109.052 37.96 108.22 37.592 107.116 37.528H106.636H104.86V43.24C105.724 43.544 106.668 43.696 107.692 43.696L107.668 43.72Z" fill="#FFA336"/>
<path d="M142.249 46.024H133.393V44.488L135.649 42.712V31.792L129.841 46.024H127.537L121.561 31.576V43.24L124.297 44.272L123.409 46.024H117.025V44.488L119.281 42.712V29.944L116.593 28.864L117.457 27.136H124.681L130.009 39.952L135.217 27.136H142.705V28.648L140.425 30.424V43.576L143.137 44.272L142.249 46.024ZM165.366 46H155.934V44.464L158.67 42.928L157.326 39.64H150.102L148.95 42.472L152.478 44.248L151.614 46H143.718V44.464L146.43 42.448L152.382 27.904L157.038 26.68L163.758 43.072L166.23 44.248L165.366 46ZM153.726 30.76L150.942 37.6H156.51L153.726 30.76ZM176.903 42.136C176.903 41.656 176.711 41.2 176.327 40.768C175.959 40.336 175.503 39.944 174.959 39.592C174.415 39.224 173.655 38.76 172.679 38.2C171.479 37.512 170.519 36.928 169.799 36.448C169.079 35.952 168.463 35.376 167.951 34.72C167.439 34.048 167.183 33.312 167.183 32.512C167.183 31.712 167.559 30.856 168.311 29.944C169.063 29.016 169.983 28.24 171.071 27.616C172.175 26.976 173.183 26.656 174.095 26.656C175.199 26.656 176.487 26.776 177.959 27.016C179.447 27.256 180.535 27.512 181.223 27.784V33.208H178.535C177.927 31.912 177.231 30.904 176.447 30.184C175.663 29.464 174.847 29.104 173.999 29.104C173.439 29.104 172.999 29.288 172.679 29.656C172.359 30.008 172.199 30.464 172.199 31.024C172.199 31.536 172.391 32.024 172.775 32.488C173.159 32.936 173.631 33.352 174.191 33.736C174.767 34.104 175.551 34.56 176.543 35.104C177.711 35.76 178.647 36.328 179.351 36.808C180.071 37.288 180.679 37.856 181.175 38.512C181.687 39.152 181.943 39.864 181.943 40.648C181.943 41.448 181.535 42.312 180.719 43.24C179.919 44.152 178.943 44.928 177.791 45.568C176.639 46.192 175.583 46.504 174.623 46.504C173.455 46.504 172.079 46.384 170.495 46.144C168.911 45.904 167.767 45.648 167.063 45.376V39.928H169.727C170.383 41.224 171.151 42.232 172.031 42.952C172.927 43.672 173.831 44.032 174.743 44.032C175.399 44.032 175.919 43.848 176.303 43.48C176.703 43.112 176.903 42.664 176.903 42.136ZM202.3 33.472L200.788 34.12L197.38 29.2H195.364V43.576L198.076 44.248L197.212 46H188.356V44.464L190.612 42.688V29.2H188.644L185.236 34.12L183.748 33.472V26.704L185.596 27.136H200.428L202.3 26.704V33.472ZM219.62 46H204.236V44.464L206.492 42.688V29.632L203.804 28.864L204.668 27.136H219.38L221.252 26.704V32.992L219.74 33.64L216.764 29.2H211.244V35.344H213.836L215.588 32.752H217.124V39.664L215.372 40.528L213.788 37.384H211.244V43.936H216.548L219.98 39.016L221.492 39.64V46.432L219.62 46ZM242.834 45.976H237.41L232.994 37.744L231.962 37.12L232.61 35.824H233.666C234.45 35.824 235.066 35.56 235.514 35.032C235.978 34.504 236.21 33.768 236.21 32.824C236.21 31.752 235.922 30.88 235.346 30.208C234.786 29.52 233.962 29.176 232.874 29.176C232.186 29.176 231.554 29.376 230.978 29.776V43.48L233.69 44.224L232.826 45.976H223.97V44.44L226.226 42.496V29.56L223.538 28.84L224.402 27.112H228.746C230.106 27.112 231.458 27.064 232.802 26.968C233.762 26.904 234.474 26.872 234.938 26.872C236.202 26.872 237.322 27.096 238.298 27.544C239.29 27.976 240.05 28.576 240.578 29.344C241.122 30.096 241.394 30.944 241.394 31.888C241.394 32.992 240.914 34.024 239.954 34.984C238.994 35.928 237.802 36.656 236.378 37.168L238.394 37.72L241.322 43.144L243.722 44.224L242.834 45.976Z" fill="white"/>
<path d="M31 61L21.4737 17.5H40.5263L31 61Z" fill="#FFA336"/>
<circle cx="31.5" cy="7.5" r="7.5" fill="#FFA336"/>
<path d="M10 18L18.6603 60.75H1.33975L10 18Z" fill="#FFA336"/>
<circle cx="10" cy="11" r="6" fill="#FFA336"/>
<path d="M53 18L61.6603 60.75H44.3397L53 18Z" fill="#FFA336"/>
<circle cx="53" cy="11" r="6" fill="#FFA336"/>
</svg>
